<?xml version="1.0" encoding="UTF-8"?>
<svg version="1.1" xmlns="http://www.w3.org/2000/svg" width="512" height="512">
<path d="M0 0 C168.96 0 337.92 0 512 0 C512 168.96 512 337.92 512 512 C343.04 512 174.08 512 0 512 C0 343.04 0 174.08 0 0 Z " fill="#6D8DAF" transform="translate(0,0)"/>
<path d="M0 0 C0.64743164 0.34111816 1.29486328 0.68223633 1.96191406 1.03369141 C22.45751847 11.86679398 40.22630595 26.09774065 57 42 C57.75410156 42.7115625 58.50820313 43.423125 59.28515625 44.15625 C64.67323652 49.38365193 69.34620006 55.1186535 74 61 C75.17369141 62.44826172 75.17369141 62.44826172 76.37109375 63.92578125 C83.6829534 73.13287492 89.96068816 82.91993471 96 93 C96.37898438 93.63099609 96.75796875 94.26199219 97.1484375 94.91210938 C127.23437409 145.86592303 134.22584884 211.06511083 120.26123047 268.01269531 C112.76388742 296.79771196 100.71988243 324.96740946 83 349 C79.53942625 346.27286128 78.44778675 342.47953576 76.9375 338.5 C67.11999961 313.74061224 52.34007595 292.18329783 34 273 C33.1646875 272.1234375 32.329375 271.246875 31.46875 270.34375 C12.26134194 250.65007844 -11.16927439 237.27831225 -36 226 C-36 223 -36 223 -34.78515625 221.59765625 C-34.21667969 221.09105469 -33.64820313 220.58445312 -33.0625 220.0625 C-13.51292845 201.22238871 -2.23582151 173.18033567 -1.70751953 146.22265625 C-1.58397978 128.26419507 -4.49723997 112.34108991 -12 96 C-12.38929688 95.113125 -12.77859375 94.22625 -13.1796875 93.3125 C-24.75579329 68.40391374 -46.92460939 49.12450055 -72.41015625 39.39624023 C-75.90600438 38.14358776 -79.43719674 37.04481034 -83 36 C-84.12921875 35.6596875 -85.2584375 35.319375 -86.421875 34.96875 C-114.40765207 28.00454741 -144.44449993 33.58820972 -169.07226562 47.89746094 C-174.45187071 51.14674241 -179.25248468 54.90060964 -184 59 C-184.73476562 59.59039062 -185.46953125 60.18078125 -186.2265625 60.7890625 C-206.75805656 77.83818301 -219.26530464 104.7285968 -222 131 C-222.94145366 144.28243663 -222.27835514 157.08526764 -219 170 C-218.73316406 171.09054688 -218.46632812 172.18109375 -218.19140625 173.3046875 C-212.74299681 193.11268271 -201.10512846 209.42470059 -187 224 C-189.33930712 226.63821594 -191.63169108 227.9374201 -194.83203125 229.3828125 C-195.78875732 229.82318848 -196.7454834 230.26356445 -197.73120117 230.71728516 C-199.25644409 231.414104 -199.25644409 231.414104 -200.8125 232.125 C-210.08904437 236.46666149 -218.64935941 241.0627159 -227 247 C-228.00804687 247.71671875 -229.01609375 248.4334375 -230.0546875 249.171875 C-264.54594175 274.43559889 -290.31462508 307.66169166 -305 348 C-305.99 348 -306.98 348 -308 348 C-309.7148956 345.65458328 -311.21032212 343.36524531 -312.6875 340.875 C-313.12956787 340.14434326 -313.57163574 339.41368652 -314.02709961 338.66088867 C-314.93263672 337.15753074 -315.83277408 335.65090736 -316.72753906 334.14111328 C-317.84020709 332.2688764 -318.97377126 330.41211432 -320.1171875 328.55859375 C-350.92829414 277.14487966 -358.23344476 212.11245592 -344.359375 154.33203125 C-339.45784448 135.03937914 -332.42507999 116.52734173 -323 99 C-322.65888184 98.35256836 -322.31776367 97.70513672 -321.96630859 97.03808594 C-311.13320602 76.54248153 -296.90225935 58.77369405 -281 42 C-279.93265625 40.86884766 -279.93265625 40.86884766 -278.84375 39.71484375 C-273.61634807 34.32676348 -267.8813465 29.65379994 -262 25 C-261.03449219 24.21753906 -260.06898438 23.43507812 -259.07421875 22.62890625 C-249.86712508 15.3170466 -240.08006529 9.03931184 -230 3 C-229.36900391 2.62101562 -228.73800781 2.24203125 -228.08789062 1.8515625 C-159.59208114 -38.59213411 -69.23850174 -37.23202452 0 0 Z " fill="#EEEBE7" transform="translate(368,45)"/>
<path d="M0 0 C27.61914627 13.48486671 57.99169033 13.5136955 86.79199219 3.64257812 C91.43170909 1.86748342 95.71607247 -0.50175268 99.984375 -3.02734375 C106.5535394 -5.58474233 112.83918569 -2.9371777 119 -0.3125 C119.72832031 -0.00530029 120.45664062 0.30189941 121.20703125 0.6184082 C149.67642194 12.96426897 174.93112004 32.41836429 194.125 56.75 C194.87007813 57.68972656 195.61515625 58.62945312 196.3828125 59.59765625 C210.06152786 77.30372857 220.37622844 97.43066982 227.125 118.75 C227.4653125 119.7915625 227.805625 120.833125 228.15625 121.90625 C228.10902531 126.20369643 225.59321772 128.27847834 222.6875 131.125 C222.13199463 131.69444336 221.57648926 132.26388672 221.00415039 132.85058594 C219.89344168 133.98496787 218.77530713 135.11213257 217.64941406 136.23144531 C216.38971561 137.48630187 215.15604626 138.76722901 213.9296875 140.0546875 C209.2326598 144.94824356 204.10903589 149.24314291 198.78417969 153.43701172 C197.62577187 154.35371526 196.47320991 155.27783327 195.32519531 156.20751953 C147.03459956 195.28169346 83.88905606 213.05521232 22.20336914 206.80444336 C-23.75137199 201.48818677 -67.00284034 184.09697787 -102.875 154.75 C-103.71925537 154.06019043 -103.71925537 154.06019043 -104.58056641 153.35644531 C-113.51553542 145.99823554 -121.93545095 138.17587471 -129.875 129.75 C-131.07382813 128.49123047 -131.07382813 128.49123047 -132.296875 127.20703125 C-133.875 124.75 -133.875 124.75 -133.8203125 122.1640625 C-120.26890874 76.08928973 -90.49952325 38.02369302 -49.875 12.75 C-49.20210938 12.33089355 -48.52921875 11.91178711 -47.8359375 11.47998047 C-39.96590084 6.65331207 -31.83631266 2.66943208 -23.3125 -0.875 C-22.06267334 -1.40818848 -22.06267334 -1.40818848 -20.78759766 -1.95214844 C-12.76163083 -5.14696651 -7.65803702 -3.9228252 0 0 Z " fill="#AFCBEA" transform="translate(208.875,287.25)"/>
<path d="M0 0 C21.09238955 17.72514984 35.447695 39.88307995 37.875 67.84765625 C39.36680236 93.5346282 31.84329559 117.53820888 15 137 C14.36964844 137.82371094 13.73929688 138.64742187 13.08984375 139.49609375 C1.43756888 153.45704364 -16.73461927 162.49975039 -34 167 C-34.82242188 167.226875 -35.64484375 167.45375 -36.4921875 167.6875 C-59.86558439 173.06412804 -85.46027438 167.92934562 -105.75 155.6875 C-111.31931644 151.98283671 -116.18297184 147.62399606 -121 143 C-121.886875 142.154375 -122.77375 141.30875 -123.6875 140.4375 C-124.8321875 139.2309375 -124.8321875 139.2309375 -126 138 C-126.51820313 137.47664062 -127.03640625 136.95328125 -127.5703125 136.4140625 C-139.01614456 124.24965802 -146.82853046 106.5257292 -149 90 C-149.10957031 89.18273437 -149.21914062 88.36546875 -149.33203125 87.5234375 C-152.33369195 61.66913336 -145.34830669 37.51024657 -129.484375 16.98828125 C-115.63073535 0.32470526 -98.0240519 -10.77150542 -77 -16 C-76.15953125 -16.22429687 -75.3190625 -16.44859375 -74.453125 -16.6796875 C-49.14100028 -22.41815056 -20.56674639 -15.56893615 0 0 Z " fill="#AFCBEA" transform="translate(312,112)"/>
<path d="M0 0 C0.33 0 0.66 0 1 0 C1.05945801 0.56581787 1.11891602 1.13163574 1.18017578 1.71459961 C3.70297859 24.90998274 8.95729348 47.09943904 17 69 C17.26361328 69.72558105 17.52722656 70.45116211 17.79882812 71.19873047 C29.29999745 102.33692136 48.98443385 131.24324152 72 155 C72.53061035 155.5563916 73.0612207 156.1127832 73.60791016 156.68603516 C81.30806442 164.74154699 89.28258253 172.02104369 98.22460938 178.67333984 C100.01342885 180.0100347 101.78064432 181.37192442 103.546875 182.73828125 C113.17209131 190.0950682 123.3702122 196.20858261 134 202 C134.6604834 202.3619043 135.3209668 202.72380859 136.00146484 203.09667969 C166.20115331 219.4440894 199.80417453 229.17907503 234 232 C234 232.33 234 232.66 234 233 C156.78 233 79.56 233 0 233 C0 156.11 0 79.22 0 0 Z " fill="#FFFFFF" transform="translate(0,279)"/>
<path d="M0 0 C0.33 0 0.66 0 1 0 C1 76.89 1 153.78 1 233 C-76.22 233 -153.44 233 -233 233 C-233 232.67 -233 232.34 -233 232 C-232.13556274 231.90295776 -232.13556274 231.90295776 -231.25366211 231.80395508 C-201.87915312 228.43007132 -173.77786641 221.81106923 -147 209 C-146.03537842 208.54439697 -146.03537842 208.54439697 -145.05126953 208.07958984 C-128.63086478 200.27939266 -113.39390436 191.10362104 -99 180 C-98.09765625 179.31164062 -97.1953125 178.62328125 -96.265625 177.9140625 C-89.51241156 172.64483545 -83.20132975 166.90063672 -77 161 C-76.43200684 160.46068848 -75.86401367 159.92137695 -75.27880859 159.36572266 C-66.68459366 151.14671799 -59.06145814 142.56261583 -52 133 C-51.58298828 132.44376953 -51.16597656 131.88753906 -50.73632812 131.31445312 C-43.48806358 121.62371565 -37.0982315 111.44700917 -31 101 C-30.63132812 100.37013184 -30.26265625 99.74026367 -29.8828125 99.09130859 C-12.36723299 68.77651567 -3.84038275 34.52040182 0 0 Z " fill="#FFFFFF" transform="translate(511,279)"/>
<path d="M0 0 C77.22 0 154.44 0 234 0 C234 77.22 234 154.44 234 234 C233.67 234 233.34 234 233 234 C232.90295776 233.13556274 232.90295776 233.13556274 232.80395508 232.25366211 C226.98084808 181.55514344 209.26556542 134.81809777 177 95 C176.55462891 94.45021484 176.10925781 93.90042969 175.65039062 93.33398438 C164.43213094 79.6157458 152.05371697 66.82321395 138 56 C137.06800781 55.23945312 136.13601563 54.47890625 135.17578125 53.6953125 C96.30953898 22.54260103 49.00742041 6.50160193 0 1 C0 0.67 0 0.34 0 0 Z " fill="#FFFFFF" transform="translate(278,0)"/>
<path d="M0 0 C77.22 0 154.44 0 234 0 C234 0.33 234 0.66 234 1 C233.13556274 1.09704224 233.13556274 1.09704224 232.25366211 1.19604492 C181.55514344 7.01915192 134.81809777 24.73443458 95 57 C94.45021484 57.44537109 93.90042969 57.89074219 93.33398438 58.34960938 C79.6157458 69.56786906 66.82321395 81.94628303 56 96 C55.23945312 96.93199219 54.47890625 97.86398438 53.6953125 98.82421875 C22.54260103 137.69046102 6.50160193 184.99257959 1 234 C0.67 234 0.34 234 0 234 C0 156.78 0 79.56 0 0 Z " fill="#FFFFFF" transform="translate(0,0)"/>
</svg>
